HIERARCHY
ROOT Hip
{
	OFFSET	0.0000	0.0000	0.0000
	CHANNELS 6 Xposition Yposition Zposition Xrotation Yrotation Zrotation
	JOINT LowerSpine
	{
		OFFSET	0.0000	8.3453	-5.1292
		CHANNELS 3 Xrotation Yrotation Zrotation
		JOINT MiddleSpine
		{
			OFFSET	10.8569	0.0000	0.0000
			CHANNELS 3 Xrotation Yrotation Zrotation
			JOINT Chest
			{
				OFFSET	15.2984	0.0000	0.0000
				CHANNELS 3 Xrotation Yrotation Zrotation
				JOINT Neck
				{
					OFFSET	25.6618	-0.5986	0.0000
					CHANNELS 3 Xrotation Yrotation Zrotation
					JOINT Head
					{
						OFFSET	8.8829	0.0000	0.0000
						CHANNELS 3 Xrotation Yrotation Zrotation
						End Site
						{
							OFFSET	19.7399	0.0000	0.0000
						}
					}
				}
				JOINT RClavicle
				{
					OFFSET	23.6878	0.0000	3.1584
					CHANNELS 3 Xrotation Yrotation Zrotation
					JOINT RShoulder
					{
						OFFSET	-15.5945	-3.9480	0.9870
						CHANNELS 3 Xrotation Yrotation Zrotation
						JOINT RForearm
						{
							OFFSET	-31.3370	0.0000	0.1974
							CHANNELS 3 Xrotation Yrotation Zrotation
							JOINT RHand
							{
								OFFSET	-26.4021	0.0000	0.0000
								CHANNELS 3 Xrotation Yrotation Zrotation
								End Site
								{
									OFFSET	-15.7919	-0.9870	0.0000
								}
							}
						}
					}
				}
				JOINT LClavicle
				{
					OFFSET	23.6878	0.0000	-3.1584
					CHANNELS 3 Xrotation Yrotation Zrotation
					JOINT LShoulder
					{
						OFFSET	-15.5945	-3.9480	-0.9870
						CHANNELS 3 Xrotation Yrotation Zrotation
						JOINT LForearm
						{
							OFFSET	-31.3370	0.0000	-0.1974
							CHANNELS 3 Xrotation Yrotation Zrotation
							JOINT LHand
							{
								OFFSET	-26.4021	0.0000	0.0000
								CHANNELS 3 Xrotation Yrotation Zrotation
								End Site
								{
									OFFSET	-15.7919	-0.9870	0.0000
								}
							}
						}
					}
				}
			}
		}
	}
	JOINT RThigh
	{
		OFFSET	-8.8829	0.4481	0.0000
		CHANNELS 3 Xrotation Yrotation Zrotation
		JOINT RShin
		{
			OFFSET	43.1316	0.0000	-0.4935
			CHANNELS 3 Xrotation Yrotation Zrotation
			JOINT RFoot
			{
				OFFSET	0.0000	-44.7256	-0.4047
				CHANNELS 3 Xrotation Yrotation Zrotation
				JOINT RToe
				{
					OFFSET	0.0000	-3.9332	12.1953
					CHANNELS 3 Xrotation Yrotation Zrotation
					End Site
					{
						OFFSET	6.7725	0.0000	0.0000
					}
				}
			}
		}
	}
	JOINT LThigh
	{
		OFFSET	8.8829	0.4481	0.0000
		CHANNELS 3 Xrotation Yrotation Zrotation
		JOINT LShin
		{
			OFFSET	43.1316	0.0000	0.4935
			CHANNELS 3 Xrotation Yrotation Zrotation
			JOINT LFoot
			{
				OFFSET	0.0000	-44.7256	0.4047
				CHANNELS 3 Xrotation Yrotation Zrotation
				JOINT LToe
				{
					OFFSET	0.0000	-3.9332	-12.1953
					CHANNELS 3 Xrotation Yrotation Zrotation
					End Site
					{
						OFFSET	6.7725	0.0000	0.0000
					}
				}
			}
		}
	}
}
MOTION
Frames:	8
Frame Time: 0.0169491000
	-2.1108	99.9081	-18.8859	0.419566	15.814750	-2.652690	-89.999990	-90.000000	0.000000	-4.269918	-1.023312	-2.176431	-14.371200	-2.756741	-7.510068	0.000000	0.000000	0.000000	0.000000	0.000000	0.000000	90.045310	0.448570	-96.058620	28.768120	2.170681	83.752620	46.623680	81.992710	-47.159460	0.000000	0.000000	0.000000	-90.032300	-0.358680	-94.838600	16.120940	-63.602730	73.968930	-8.952462	-57.313920	-10.902500	0.000000	0.000000	0.000000	-31.750230	86.256340	-75.578750	89.636980	36.188930	90.080460	-2.099427	-2.847902	-0.953439	179.999900	90.000000	0.000000	-137.225200	81.660790	43.460670	-89.862300	-15.189090	90.002680	0.477860	-3.582268	1.105651	180.005400	-90.000000	0.000000
	-2.5948	99.5127	-19.0259	1.301524	16.158340	-2.549102	-89.999990	-90.000000	0.000000	-4.112894	-1.006951	-1.934101	-13.834160	-2.795500	-6.694227	0.000000	0.000000	0.000000	0.000000	0.000000	0.000000	90.044810	0.445294	-96.014010	27.475910	3.322191	82.889600	41.451010	81.226820	-42.041960	0.000000	0.000000	0.000000	-90.033160	-0.365089	-94.925460	15.061800	-63.084780	75.410510	-8.678041	-56.527820	-10.672550	0.000000	0.000000	0.000000	-29.471340	85.561530	-75.392930	89.685100	32.285130	90.057340	-0.994313	-2.269407	-0.749829	180.000000	90.000000	0.000000	-133.613100	81.479740	38.974150	-89.844740	-17.051880	90.005650	1.003020	-2.338863	0.758469	180.002600	-90.000000	0.000000
	-3.1714	98.5216	-19.0706	1.952246	16.760950	-2.464510	-89.999990	-90.000000	0.000000	-3.936421	-0.973010	-1.682126	-13.229060	-2.775698	-5.840069	0.000000	0.000000	0.000000	0.000000	0.000000	0.000000	90.041180	0.421296	-95.688030	26.409940	4.256402	82.030620	36.960800	80.365150	-37.609390	0.000000	0.000000	0.000000	-90.032780	-0.362179	-94.885990	13.053930	-62.404960	75.629170	-8.483042	-55.948260	-10.510440	0.000000	0.000000	0.000000	-29.934950	85.045170	-72.289050	89.729250	28.407200	90.038980	-0.463415	-1.679155	-0.554880	180.000000	90.000000	0.000000	-129.863700	81.214290	34.899670	-89.828220	-18.776770	90.008960	0.414329	-1.498452	0.481234	180.195500	-90.000000	0.000000
	-3.8186	97.1520	-19.0563	2.592637	16.991040	-2.476764	-89.999990	-90.000000	0.000000	-3.736807	-0.926381	-1.428721	-12.545520	-2.710326	-4.976593	0.000000	0.000000	0.000000	0.000000	0.000000	0.000000	90.033870	0.369729	-94.988430	25.472530	4.764452	80.842480	33.294360	79.475240	-33.999390	0.000000	0.000000	0.000000	-90.030430	-0.344400	-94.645100	10.350090	-61.091280	75.186230	-8.328138	-55.474950	-10.382450	0.000000	0.000000	0.000000	-31.819440	84.556970	-68.068700	89.761830	25.370280	90.027340	-0.680715	-1.203173	-0.404607	179.425800	90.000000	0.000000	-125.791600	80.825490	30.933570	-89.812140	-20.426510	90.012660	-0.061476	-1.229074	0.392177	181.751200	-90.000000	0.000000
	-4.4604	95.6906	-19.0058	3.364507	16.305840	-2.479669	-89.999990	-90.000000	0.000000	-3.506023	-0.871844	-1.179655	-11.758250	-2.613149	-4.124372	0.000000	0.000000	0.000000	0.000000	0.000000	0.000000	90.023350	0.285985	-93.854710	24.366670	5.176640	79.244860	29.022750	78.142880	-29.808640	0.000000	0.000000	0.000000	-90.025670	-0.306261	-94.128850	7.029565	-59.137340	74.336200	-8.129323	-54.850040	-10.219270	0.000000	0.000000	0.000000	-34.085010	84.034690	-64.449940	89.779290	23.682720	90.021810	-1.923453	-0.697185	-0.237490	177.318000	90.000000	0.000000	-121.840100	80.428160	27.245150	-89.798070	-21.847090	90.016300	-0.112691	-1.201010	0.376515	186.369700	-90.000000	0.000000
	-5.1308	94.2001	-19.0133	4.234453	14.678550	-2.460318	-89.999990	-90.000000	0.000000	-3.233162	-0.814213	-0.936122	-10.831810	-2.499121	-3.288549	0.000000	0.000000	0.000000	0.000000	0.000000	0.000000	90.011630	0.170817	-92.299770	23.028100	5.785860	77.428340	24.538200	76.242000	-25.434960	0.000000	0.000000	0.000000	-90.018680	-0.244406	-93.292740	3.403922	-56.700320	73.205230	-7.847570	-53.929470	-9.990194	0.000000	0.000000	0.000000	-36.985290	83.487950	-61.281400	89.783490	23.270690	90.020550	-4.849849	0.022926	0.041403	175.011800	90.000000	0.000000	-118.320800	79.998250	23.751170	-89.779510	-23.682680	90.021590	0.275898	-1.283961	0.417280	193.734600	-90.000000	0.000000
	-5.9088	92.6535	-19.1537	5.157307	12.772270	-2.512550	-89.999990	-90.000000	0.000000	-2.910694	-0.757981	-0.696402	-9.741491	-2.382030	-2.464494	0.000000	0.000000	0.000000	0.000000	0.000000	0.000000	90.001640	0.031189	-90.419520	21.647830	6.427488	75.442310	21.001470	74.187580	-22.014710	0.000000	0.000000	0.000000	-90.010600	-0.159908	-92.152630	-0.037700	-54.137200	71.888910	-7.447173	-52.546360	-9.669401	0.000000	0.000000	0.000000	-40.594840	82.924770	-58.318090	89.776600	23.945220	90.022640	-9.784029	0.874463	0.532328	175.387100	90.000000	0.000000	-114.660900	79.476960	19.679810	-89.748460	-26.655530	90.031760	0.854175	-1.751479	0.595701	201.585200	-90.000000	0.000000
	-6.7443	91.0516	-19.4561	6.091845	11.196230	-2.659979	-89.999990	-90.000000	0.000000	-2.543311	-0.706641	-0.460655	-8.503093	-2.271102	-1.653879	0.000000	0.000000	0.000000	0.000000	0.000000	0.000000	89.995980	-0.120523	-88.380310	20.256040	7.129330	73.286190	18.341870	72.153800	-19.468580	0.000000	0.000000	0.000000	-90.003200	-0.059248	-90.796940	-3.160121	-51.644090	70.287900	-6.934601	-50.636890	-9.267691	0.000000	0.000000	0.000000	-44.243420	82.381040	-56.379990	89.755020	26.015670	90.029640	-15.762460	1.641186	1.193531	177.881100	90.000000	0.000000	-109.373500	79.137700	13.439390	-89.702160	-30.840320	90.049770	1.243085	-2.330000	0.807390	208.390900	-90.000000	0.000000
